<?xml version="1.0" encoding="utf-8"?>
<!-- Generator: Adobe Illustrator 19.2.1, SVG Export Plug-In . SVG Version: 6.00 Build 0)  -->
<svg version="1.1" id="Layer_1" xmlns="http://www.w3.org/2000/svg" xmlns:xlink="http://www.w3.org/1999/xlink" x="0px" y="0px"
	 viewBox="0 0 203.9 50" style="enable-background:new 0 0 203.9 50;" xml:space="preserve">
<style type="text/css">
	.st0{fill:#FED500;}
</style>
<g>
	<path class="st0" d="M19.2,28.6c0.4,0.3,0.8,0.6,1.4,0.8c0.6,0.2,1.2,0.3,1.7,0.3c0.5,0,0.9-0.1,1.3-0.2c0.3-0.1,0.5-0.4,0.5-0.7
		c0-0.1,0-0.3-0.1-0.4c-0.1-0.1-0.2-0.2-0.4-0.3c-0.2-0.1-0.5-0.2-0.8-0.3c-0.3-0.1-0.8-0.2-1.3-0.4c-0.4-0.1-0.9-0.3-1.3-0.4
		c-0.4-0.2-0.8-0.4-1.1-0.7c-0.3-0.3-0.6-0.6-0.8-1c-0.2-0.4-0.3-0.8-0.3-1.3c0-0.5,0.1-1,0.4-1.4c0.2-0.4,0.6-0.8,1-1.1
		c0.4-0.3,0.9-0.5,1.5-0.7c0.6-0.2,1.2-0.2,1.9-0.2c0.9,0,1.8,0.1,2.5,0.3c0.7,0.2,1.4,0.5,2,0.9l-1.4,2.3c-0.4-0.2-0.8-0.5-1.2-0.6
		c-0.5-0.2-1-0.3-1.6-0.3c-0.5,0-0.9,0.1-1.1,0.2c-0.2,0.2-0.4,0.4-0.4,0.6c0,0.4,0.2,0.6,0.7,0.8c0.5,0.2,1.2,0.4,2,0.6
		c1.1,0.3,2,0.8,2.5,1.3c0.5,0.6,0.8,1.3,0.8,2.2c0,0.6-0.1,1.1-0.4,1.6c-0.3,0.4-0.6,0.8-1.1,1.1c-0.5,0.3-1,0.5-1.6,0.7
		c-0.6,0.1-1.2,0.2-1.8,0.2c-1,0-1.9-0.1-2.8-0.4c-0.9-0.3-1.6-0.7-2.2-1.2L19.2,28.6z"/>
</g>
<g>
	<path class="st0" d="M61.4,23.6h-1.8v-2.7h1.8v-3.4h3.4v3.4h2.9v2.7h-2.9V28c0,0.5,0.1,1,0.3,1.2c0.2,0.3,0.5,0.4,1,0.4
		c0.3,0,0.6-0.1,0.9-0.2c0.3-0.1,0.5-0.3,0.7-0.4l1.4,2.1c-1.1,0.9-2.2,1.3-3.5,1.3c-0.8,0-1.5-0.1-2-0.3c-0.5-0.2-1-0.5-1.3-0.9
		c-0.3-0.4-0.6-0.9-0.7-1.5c-0.1-0.6-0.2-1.2-0.2-1.9V23.6z"/>
</g>
<g>
	<path class="st0" d="M94.3,30.9c-0.1,0.1-0.3,0.2-0.6,0.4c-0.3,0.2-0.6,0.4-1,0.5c-0.4,0.2-0.9,0.3-1.4,0.5
		c-0.6,0.1-1.2,0.2-1.9,0.2c-0.9,0-1.8-0.1-2.6-0.4c-0.8-0.3-1.4-0.7-1.9-1.2c-0.5-0.5-0.9-1.2-1.2-1.9c-0.3-0.7-0.4-1.5-0.4-2.4
		c0-0.8,0.1-1.5,0.4-2.2c0.3-0.7,0.6-1.3,1.1-1.9c0.5-0.5,1.1-1,1.8-1.3c0.7-0.3,1.5-0.5,2.4-0.5c0.9,0,1.7,0.2,2.4,0.5
		c0.7,0.3,1.3,0.8,1.7,1.3c0.5,0.6,0.8,1.2,1.1,2c0.2,0.8,0.4,1.6,0.4,2.6v0.6h-7.9c0,0.6,0.3,1.1,0.8,1.6c0.5,0.5,1.2,0.7,2.1,0.7
		c0.9,0,1.6-0.1,2.2-0.4c0.6-0.3,1-0.5,1.2-0.7L94.3,30.9z M91.3,25.3c0-0.2,0-0.5-0.1-0.7c-0.1-0.2-0.2-0.5-0.4-0.7
		c-0.2-0.2-0.4-0.4-0.7-0.5c-0.3-0.1-0.6-0.2-1-0.2c-0.4,0-0.7,0.1-1,0.2c-0.3,0.1-0.6,0.3-0.7,0.5c-0.2,0.2-0.3,0.4-0.5,0.7
		c-0.1,0.2-0.2,0.5-0.2,0.7H91.3z"/>
</g>
<g>
	<path class="st0" d="M41.7,17.6h3.7v3.1h-3.7V17.6z M41.8,22.3h3.4v10.2h-3.4V22.3z"/>
</g>
<g>
	<path class="st0" d="M108.8,17.6h3.4v14.9h-3.4V17.6z"/>
</g>
<g>
	<path class="st0" d="M125.6,26.5c0-0.8,0.1-1.6,0.4-2.3c0.3-0.7,0.7-1.3,1.2-1.9c0.5-0.5,1.2-1,1.9-1.3c0.7-0.3,1.5-0.5,2.4-0.5
		c0.9,0,1.7,0.2,2.4,0.5c0.7,0.3,1.4,0.7,1.9,1.3c0.5,0.5,0.9,1.2,1.2,1.9c0.3,0.7,0.4,1.5,0.4,2.3c0,0.8-0.1,1.6-0.4,2.3
		c-0.3,0.7-0.7,1.3-1.2,1.9c-0.5,0.5-1.1,1-1.9,1.3c-0.7,0.3-1.5,0.5-2.4,0.5c-0.9,0-1.7-0.2-2.4-0.5c-0.7-0.3-1.4-0.7-1.9-1.3
		c-0.5-0.5-0.9-1.2-1.2-1.9C125.7,28.1,125.6,27.3,125.6,26.5z M131.5,29.5c0.4,0,0.8-0.1,1.1-0.2c0.3-0.2,0.6-0.4,0.8-0.7
		c0.2-0.3,0.4-0.6,0.5-1c0.1-0.4,0.2-0.7,0.2-1.1c0-0.4-0.1-0.7-0.2-1.1c-0.1-0.4-0.3-0.7-0.5-0.9c-0.2-0.3-0.5-0.5-0.8-0.7
		c-0.3-0.2-0.7-0.2-1.1-0.2c-0.4,0-0.8,0.1-1.2,0.2c-0.3,0.2-0.6,0.4-0.8,0.7c-0.2,0.3-0.4,0.6-0.5,0.9c-0.1,0.4-0.2,0.7-0.2,1.1
		c0,0.4,0.1,0.7,0.2,1.1c0.1,0.4,0.3,0.7,0.5,1c0.2,0.3,0.5,0.5,0.8,0.7C130.7,29.4,131.1,29.5,131.5,29.5z"/>
</g>
<g>
	<path class="st0" d="M154,25.4h-1.8v-2.7h1.8v-0.6c0-0.8,0.1-1.5,0.4-2c0.3-0.6,0.6-1,1-1.4c0.4-0.4,0.9-0.6,1.5-0.8
		c0.5-0.2,1.1-0.3,1.7-0.3c0.6,0,1.2,0.1,1.8,0.3c0.6,0.2,1.2,0.5,1.7,0.9c-0.2,0.4-0.5,0.7-0.7,1.1c-0.2,0.4-0.5,0.7-0.7,1.1
		c-0.2-0.2-0.5-0.3-0.8-0.4c-0.3-0.1-0.6-0.1-0.9-0.1c-0.5,0-0.9,0.2-1.1,0.5c-0.3,0.3-0.4,0.7-0.4,1.3v0.6h2.6v2.7h-2.6v7.1H154
		V25.4z"/>
</g>
<g>
	<path class="st0" d="M178.2,23.6h-1.8v-2.7h1.8v-3.4h3.4v3.4h2.9v2.7h-2.9V28c0,0.5,0.1,1,0.3,1.2c0.2,0.3,0.5,0.4,1,0.4
		c0.3,0,0.6-0.1,0.9-0.2c0.3-0.1,0.5-0.3,0.7-0.4l1.4,2.1c-1.1,0.9-2.2,1.3-3.5,1.3c-0.8,0-1.5-0.1-2-0.3c-0.5-0.2-1-0.5-1.3-0.9
		c-0.3-0.4-0.6-0.9-0.7-1.5c-0.1-0.6-0.2-1.2-0.2-1.9V23.6z"/>
</g>
<polygon class="st0" points="0,0 0,50 176,50 176.3,50 176.4,50 185,41.4 182.6,39.1 175,46.7 3.3,46.7 3.3,3.3 200.5,3.3 
	200.5,46.7 187.1,46.7 187.1,50 203.9,50 203.9,0 "/>
</svg>
